<?xml version="1.0" standalone="no"?>
<!DOCTYPE svg PUBLIC "-//W3C//DTD SVG 20010904//EN"
 "http://www.w3.org/TR/2001/REC-SVG-20010904/DTD/svg10.dtd">
<svg version="1.0" xmlns="http://www.w3.org/2000/svg"
 width="2000.000000pt" height="2000.000000pt" viewBox="0 0 2000.000000 2000.000000"
 preserveAspectRatio="xMidYMid meet">
<metadata>
Created by potrace 1.14, written by Peter Selinger 2001-2017
</metadata>
<g transform="translate(0.000000,2000.000000) scale(0.100000,-0.100000)"
fill="#000000" stroke="none">
<path d="M10279 17448 c-87 -35 -363 -152 -464 -198 -108 -49 -573 -280 -635
-316 -30 -17 -118 -67 -195 -110 -77 -43 -163 -92 -190 -108 -28 -17 -59 -36
-70 -43 -114 -67 -465 -297 -605 -396 -95 -67 -374 -273 -405 -299 -11 -9 -83
-67 -160 -129 -77 -62 -171 -140 -210 -173 -38 -34 -83 -72 -99 -86 -37 -32
-34 -30 -151 -135 -89 -80 -232 -216 -365 -347 -176 -173 -464 -488 -625 -683
-28 -33 -52 -62 -55 -65 -17 -15 -250 -314 -336 -430 -222 -299 -448 -638
-604 -905 -54 -92 -160 -279 -160 -281 0 -2 -14 -27 -31 -55 -71 -122 -208
-398 -369 -744 -32 -69 -127 -296 -168 -400 -21 -55 -43 -109 -47 -120 -4 -11
-9 -24 -11 -30 -5 -15 -104 -288 -111 -305 -3 -8 -7 -19 -8 -25 -2 -5 -34
-104 -73 -220 -96 -288 -156 -495 -198 -675 -17 -76 -36 -170 -39 -192 -2 -15
-8 -44 -14 -65 -5 -21 -12 -56 -15 -78 -3 -22 -7 -51 -10 -64 -3 -13 -8 -49
-12 -80 -3 -31 -8 -58 -9 -62 -2 -3 -7 -39 -11 -80 -3 -40 -8 -76 -9 -79 -2
-3 -6 -46 -10 -95 -4 -50 -9 -97 -10 -106 -8 -40 -19 -341 -18 -509 0 -163 9
-418 17 -505 2 -16 7 -68 11 -115 4 -47 8 -87 10 -90 1 -3 6 -36 9 -75 4 -38
9 -81 11 -95 3 -14 7 -41 10 -60 3 -19 7 -46 10 -60 3 -14 7 -40 10 -57 12
-75 16 -99 20 -113 2 -8 7 -31 10 -50 26 -150 108 -468 176 -680 38 -118 120
-351 139 -395 5 -11 36 -85 70 -165 71 -166 211 -449 295 -595 31 -55 66 -115
76 -133 45 -78 148 -236 228 -351 47 -67 93 -133 101 -145 52 -76 205 -265
344 -426 150 -173 554 -571 640 -629 12 -8 28 -22 36 -31 12 -12 136 -113 240
-193 161 -125 489 -342 680 -449 25 -14 63 -35 85 -48 96 -55 422 -212 560
-270 83 -34 164 -68 180 -75 245 -104 796 -261 1084 -310 19 -3 37 -7 40 -9 3
-2 29 -7 56 -10 28 -4 57 -9 65 -11 8 -2 35 -6 60 -9 52 -6 110 -14 160 -22
19 -3 53 -8 75 -10 107 -10 163 -15 195 -19 193 -24 831 -24 1035 0 17 2 62 6
100 10 69 6 135 13 185 20 14 2 61 9 105 15 85 12 99 14 185 30 30 5 69 12 85
15 17 2 39 7 50 9 11 3 54 12 95 21 163 34 473 117 545 145 17 6 31 11 33 11
1 -1 3 -1 5 0 1 0 9 2 17 4 17 4 185 62 215 74 11 5 54 21 95 36 41 15 79 32
84 36 6 5 16 9 24 9 7 0 32 9 55 19 23 11 85 38 137 61 141 62 428 208 567
288 116 67 392 239 403 251 3 4 25 20 50 36 386 256 875 703 1222 1115 30 36
98 121 152 190 53 69 100 130 104 135 22 27 194 280 217 317 14 24 44 72 66
108 23 36 55 90 71 120 17 30 36 62 43 70 14 18 61 109 161 310 85 171 96 196
164 360 28 69 55 134 60 145 57 136 206 608 235 745 3 14 21 91 31 133 11 47
16 72 39 192 26 144 31 171 40 230 3 23 7 50 9 61 2 11 7 45 10 75 4 30 8 68
10 84 3 17 7 62 11 100 4 39 8 86 10 105 24 229 24 844 0 1045 -2 17 -7 64
-11 105 -3 41 -8 84 -10 95 -2 11 -6 45 -9 75 -3 30 -8 66 -10 80 -3 14 -7 43
-10 65 -4 22 -11 67 -17 100 -6 33 -12 69 -14 80 -5 35 -14 79 -20 105 -3 14
-8 36 -10 50 -7 40 -45 202 -55 236 -5 17 -11 41 -14 53 -14 73 -143 491 -165
536 -6 11 -9 31 -8 45 2 25 -4 39 -70 180 -19 41 -50 108 -67 147 -18 40 -34
71 -37 68 -2 -2 -21 26 -43 63 -80 141 -267 407 -359 511 -161 183 -344 363
-481 474 -33 26 -67 54 -75 60 -35 29 -230 166 -290 204 -284 181 -688 359
-995 438 -16 5 -34 9 -40 11 -61 16 -248 56 -278 59 -21 2 -41 6 -45 9 -4 2
-35 8 -67 11 -33 4 -68 9 -77 10 -9 2 -49 6 -90 10 -40 3 -93 8 -118 11 -106
12 -497 5 -620 -11 -19 -2 -60 -7 -90 -10 -61 -7 -82 -10 -202 -31 -27 -4
-169 -35 -228 -49 -439 -104 -912 -329 -1303 -618 -191 -141 -422 -355 -563
-520 -38 -44 -74 -85 -80 -91 -21 -22 -162 -212 -211 -286 -130 -193 -265
-446 -343 -640 -23 -58 -46 -114 -50 -125 -34 -80 -127 -392 -144 -485 -3 -14
-7 -36 -10 -50 -12 -55 -16 -77 -22 -114 -3 -21 -7 -48 -10 -60 -2 -11 -6 -45
-10 -74 -3 -29 -7 -62 -9 -73 -13 -64 -20 -233 -19 -444 1 -249 2 -280 28
-480 17 -130 22 -154 67 -352 30 -136 92 -334 146 -471 24 -63 43 -116 40
-118 -7 -8 -394 220 -417 246 -3 3 -25 18 -50 34 -62 41 -243 178 -315 241
-33 28 -73 62 -90 76 -39 32 -361 352 -405 404 -503 580 -825 1195 -1006 1915
-2 8 -8 33 -14 55 -5 22 -13 56 -16 75 -3 19 -9 51 -14 70 -11 41 -14 62 -30
167 -7 43 -13 85 -15 93 -2 8 -6 47 -10 85 -4 39 -9 77 -10 86 -10 55 -20 275
-20 459 0 191 11 444 19 459 2 4 6 38 10 76 4 39 8 81 11 95 7 42 26 163 30
191 3 20 31 150 60 274 1 6 7 31 14 56 l13 46 86 26 c99 30 340 93 390 102 18
3 65 12 105 21 39 8 85 17 102 19 16 2 48 7 69 10 22 3 51 7 65 10 27 5 78 12
134 19 126 17 164 21 287 31 41 4 93 8 116 10 304 27 1304 27 2009 0 398 -15
1352 -23 1430 -12 94 14 120 19 210 42 150 39 290 100 434 192 31 20 58 39 61
42 3 4 28 23 56 44 70 50 216 206 286 303 62 87 140 232 182 337 35 89 83 272
93 356 9 81 10 318 0 386 -36 268 -151 530 -322 731 -113 134 -456 414 -820
670 -66 46 -129 91 -140 100 -11 9 -30 21 -42 27 -13 5 -23 14 -23 19 0 4 -5
8 -10 8 -6 0 -63 35 -128 78 -273 183 -622 385 -962 558 -154 79 -136 75 -221
42z"/>
</g>
</svg>
